<mxfile host="app.diagrams.net" modified="2021-10-13T19:48:07.803Z" agent="5.0 (Windows NT 10.0; Win64; x64) AppleWebKit/537.36 (KHTML, like Gecko) Chrome/94.0.4606.61 Safari/537.36" etag="Ib96w1L0VNbeziBmcqV3" version="15.5.2" type="github">
  <diagram id="C5RBs43oDa-KdzZeNtuy" name="Page-1">
    <mxGraphModel dx="1848" dy="529" grid="1" gridSize="10" guides="1" tooltips="1" connect="1" arrows="1" fold="1" page="1" pageScale="1" pageWidth="827" pageHeight="1169" background="none" math="0" shadow="1">
      <root>
        <mxCell id="WIyWlLk6GJQsqaUBKTNV-0" />
        <mxCell id="WIyWlLk6GJQsqaUBKTNV-1" parent="WIyWlLk6GJQsqaUBKTNV-0" />
        <mxCell id="vqWYdQpRuv8S9VLRIAVL-1" style="edgeStyle=orthogonalEdgeStyle;rounded=0;orthogonalLoop=1;jettySize=auto;html=1;exitX=0.5;exitY=1;exitDx=0;exitDy=0;exitPerimeter=0;entryX=0.496;entryY=0.22;entryDx=0;entryDy=0;entryPerimeter=0;" edge="1" parent="WIyWlLk6GJQsqaUBKTNV-1" source="vqWYdQpRuv8S9VLRIAVL-0" target="vqWYdQpRuv8S9VLRIAVL-2">
          <mxGeometry relative="1" as="geometry">
            <mxPoint x="45" y="140" as="targetPoint" />
            <Array as="points">
              <mxPoint x="90" y="140" />
            </Array>
          </mxGeometry>
        </mxCell>
        <mxCell id="vqWYdQpRuv8S9VLRIAVL-0" value="Inicio" style="strokeWidth=2;html=1;shape=mxgraph.flowchart.start_2;whiteSpace=wrap;" vertex="1" parent="WIyWlLk6GJQsqaUBKTNV-1">
          <mxGeometry x="52.5" y="10" width="75" height="70" as="geometry" />
        </mxCell>
        <mxCell id="vqWYdQpRuv8S9VLRIAVL-3" style="edgeStyle=orthogonalEdgeStyle;rounded=0;orthogonalLoop=1;jettySize=auto;html=1;" edge="1" parent="WIyWlLk6GJQsqaUBKTNV-1">
          <mxGeometry relative="1" as="geometry">
            <mxPoint x="90" y="250" as="targetPoint" />
            <mxPoint x="90" y="250" as="sourcePoint" />
          </mxGeometry>
        </mxCell>
        <mxCell id="vqWYdQpRuv8S9VLRIAVL-8" value="" style="edgeStyle=orthogonalEdgeStyle;rounded=0;orthogonalLoop=1;jettySize=auto;html=1;" edge="1" parent="WIyWlLk6GJQsqaUBKTNV-1" source="vqWYdQpRuv8S9VLRIAVL-2" target="vqWYdQpRuv8S9VLRIAVL-7">
          <mxGeometry relative="1" as="geometry" />
        </mxCell>
        <mxCell id="vqWYdQpRuv8S9VLRIAVL-20" style="edgeStyle=orthogonalEdgeStyle;rounded=0;orthogonalLoop=1;jettySize=auto;html=1;" edge="1" parent="WIyWlLk6GJQsqaUBKTNV-1" source="vqWYdQpRuv8S9VLRIAVL-2" target="vqWYdQpRuv8S9VLRIAVL-18">
          <mxGeometry relative="1" as="geometry" />
        </mxCell>
        <mxCell id="vqWYdQpRuv8S9VLRIAVL-21" value="" style="edgeStyle=orthogonalEdgeStyle;rounded=0;orthogonalLoop=1;jettySize=auto;html=1;" edge="1" parent="WIyWlLk6GJQsqaUBKTNV-1" source="vqWYdQpRuv8S9VLRIAVL-2" target="vqWYdQpRuv8S9VLRIAVL-17">
          <mxGeometry relative="1" as="geometry" />
        </mxCell>
        <mxCell id="vqWYdQpRuv8S9VLRIAVL-26" style="edgeStyle=orthogonalEdgeStyle;rounded=0;orthogonalLoop=1;jettySize=auto;html=1;entryX=0;entryY=0.5;entryDx=0;entryDy=0;" edge="1" parent="WIyWlLk6GJQsqaUBKTNV-1" source="vqWYdQpRuv8S9VLRIAVL-2" target="vqWYdQpRuv8S9VLRIAVL-25">
          <mxGeometry relative="1" as="geometry">
            <mxPoint x="20" y="200" as="targetPoint" />
          </mxGeometry>
        </mxCell>
        <mxCell id="vqWYdQpRuv8S9VLRIAVL-27" style="edgeStyle=orthogonalEdgeStyle;rounded=0;orthogonalLoop=1;jettySize=auto;html=1;entryX=1;entryY=0.5;entryDx=0;entryDy=0;" edge="1" parent="WIyWlLk6GJQsqaUBKTNV-1" source="vqWYdQpRuv8S9VLRIAVL-2" target="vqWYdQpRuv8S9VLRIAVL-24">
          <mxGeometry relative="1" as="geometry" />
        </mxCell>
        <mxCell id="vqWYdQpRuv8S9VLRIAVL-2" value="&lt;br&gt;&lt;br&gt;Input de X e Y" style="html=1;strokeWidth=2;shape=manualInput;whiteSpace=wrap;rounded=1;size=26;arcSize=11;" vertex="1" parent="WIyWlLk6GJQsqaUBKTNV-1">
          <mxGeometry x="40" y="140" width="100" height="50" as="geometry" />
        </mxCell>
        <mxCell id="vqWYdQpRuv8S9VLRIAVL-10" style="edgeStyle=orthogonalEdgeStyle;rounded=0;orthogonalLoop=1;jettySize=auto;html=1;entryX=0.5;entryY=0;entryDx=0;entryDy=0;entryPerimeter=0;" edge="1" parent="WIyWlLk6GJQsqaUBKTNV-1" source="vqWYdQpRuv8S9VLRIAVL-7" target="vqWYdQpRuv8S9VLRIAVL-9">
          <mxGeometry relative="1" as="geometry">
            <mxPoint x="80" y="320" as="targetPoint" />
          </mxGeometry>
        </mxCell>
        <mxCell id="vqWYdQpRuv8S9VLRIAVL-7" value="soma = X + Y" style="whiteSpace=wrap;html=1;rounded=1;strokeWidth=2;arcSize=11;direction=west;" vertex="1" parent="WIyWlLk6GJQsqaUBKTNV-1">
          <mxGeometry x="30" y="265" width="120" height="35" as="geometry" />
        </mxCell>
        <mxCell id="vqWYdQpRuv8S9VLRIAVL-13" style="edgeStyle=orthogonalEdgeStyle;rounded=0;orthogonalLoop=1;jettySize=auto;html=1;entryX=0.5;entryY=0;entryDx=0;entryDy=0;entryPerimeter=0;" edge="1" parent="WIyWlLk6GJQsqaUBKTNV-1" source="vqWYdQpRuv8S9VLRIAVL-9" target="vqWYdQpRuv8S9VLRIAVL-12">
          <mxGeometry relative="1" as="geometry" />
        </mxCell>
        <mxCell id="vqWYdQpRuv8S9VLRIAVL-9" value="Resultado" style="strokeWidth=2;html=1;shape=mxgraph.flowchart.display;whiteSpace=wrap;" vertex="1" parent="WIyWlLk6GJQsqaUBKTNV-1">
          <mxGeometry x="40" y="360" width="100" height="60" as="geometry" />
        </mxCell>
        <mxCell id="vqWYdQpRuv8S9VLRIAVL-12" value="Fim" style="strokeWidth=2;html=1;shape=mxgraph.flowchart.terminator;whiteSpace=wrap;" vertex="1" parent="WIyWlLk6GJQsqaUBKTNV-1">
          <mxGeometry x="40" y="480" width="100" height="60" as="geometry" />
        </mxCell>
        <mxCell id="vqWYdQpRuv8S9VLRIAVL-22" style="edgeStyle=orthogonalEdgeStyle;rounded=0;orthogonalLoop=1;jettySize=auto;html=1;entryX=1;entryY=0.5;entryDx=0;entryDy=0;entryPerimeter=0;" edge="1" parent="WIyWlLk6GJQsqaUBKTNV-1" source="vqWYdQpRuv8S9VLRIAVL-17" target="vqWYdQpRuv8S9VLRIAVL-9">
          <mxGeometry relative="1" as="geometry">
            <mxPoint x="240" y="390" as="targetPoint" />
            <Array as="points">
              <mxPoint x="260" y="390" />
            </Array>
          </mxGeometry>
        </mxCell>
        <mxCell id="vqWYdQpRuv8S9VLRIAVL-17" value="multiplicação = X * Y" style="whiteSpace=wrap;html=1;rounded=1;strokeWidth=2;arcSize=11;direction=west;" vertex="1" parent="WIyWlLk6GJQsqaUBKTNV-1">
          <mxGeometry x="200" y="147.5" width="120" height="35" as="geometry" />
        </mxCell>
        <mxCell id="vqWYdQpRuv8S9VLRIAVL-23" style="edgeStyle=orthogonalEdgeStyle;rounded=0;orthogonalLoop=1;jettySize=auto;html=1;entryX=0;entryY=0.5;entryDx=0;entryDy=0;entryPerimeter=0;" edge="1" parent="WIyWlLk6GJQsqaUBKTNV-1" source="vqWYdQpRuv8S9VLRIAVL-18" target="vqWYdQpRuv8S9VLRIAVL-9">
          <mxGeometry relative="1" as="geometry">
            <Array as="points">
              <mxPoint x="-80" y="390" />
            </Array>
          </mxGeometry>
        </mxCell>
        <mxCell id="vqWYdQpRuv8S9VLRIAVL-18" value="subtração = X - Y" style="whiteSpace=wrap;html=1;rounded=1;strokeWidth=2;arcSize=11;direction=west;" vertex="1" parent="WIyWlLk6GJQsqaUBKTNV-1">
          <mxGeometry x="-140" y="147.5" width="120" height="35" as="geometry" />
        </mxCell>
        <mxCell id="vqWYdQpRuv8S9VLRIAVL-28" style="edgeStyle=orthogonalEdgeStyle;rounded=0;orthogonalLoop=1;jettySize=auto;html=1;entryX=1;entryY=0.5;entryDx=0;entryDy=0;entryPerimeter=0;" edge="1" parent="WIyWlLk6GJQsqaUBKTNV-1" source="vqWYdQpRuv8S9VLRIAVL-24" target="vqWYdQpRuv8S9VLRIAVL-9">
          <mxGeometry relative="1" as="geometry" />
        </mxCell>
        <mxCell id="vqWYdQpRuv8S9VLRIAVL-24" value="divisão = X / Y" style="whiteSpace=wrap;html=1;rounded=1;strokeWidth=2;arcSize=11;direction=west;" vertex="1" parent="WIyWlLk6GJQsqaUBKTNV-1">
          <mxGeometry x="110" y="210" width="120" height="35" as="geometry" />
        </mxCell>
        <mxCell id="vqWYdQpRuv8S9VLRIAVL-29" style="edgeStyle=orthogonalEdgeStyle;rounded=0;orthogonalLoop=1;jettySize=auto;html=1;entryX=0;entryY=0.5;entryDx=0;entryDy=0;entryPerimeter=0;" edge="1" parent="WIyWlLk6GJQsqaUBKTNV-1" source="vqWYdQpRuv8S9VLRIAVL-25" target="vqWYdQpRuv8S9VLRIAVL-9">
          <mxGeometry relative="1" as="geometry" />
        </mxCell>
        <mxCell id="vqWYdQpRuv8S9VLRIAVL-25" value="potência = X ** Y" style="whiteSpace=wrap;html=1;rounded=1;strokeWidth=2;arcSize=11;direction=west;" vertex="1" parent="WIyWlLk6GJQsqaUBKTNV-1">
          <mxGeometry x="-50" y="210" width="120" height="35" as="geometry" />
        </mxCell>
        <mxCell id="vqWYdQpRuv8S9VLRIAVL-34" style="edgeStyle=orthogonalEdgeStyle;rounded=0;orthogonalLoop=1;jettySize=auto;html=1;entryX=0.499;entryY=0.211;entryDx=0;entryDy=0;entryPerimeter=0;" edge="1" parent="WIyWlLk6GJQsqaUBKTNV-1" source="vqWYdQpRuv8S9VLRIAVL-30" target="vqWYdQpRuv8S9VLRIAVL-31">
          <mxGeometry relative="1" as="geometry" />
        </mxCell>
        <mxCell id="vqWYdQpRuv8S9VLRIAVL-30" value="Inicio" style="strokeWidth=2;html=1;shape=mxgraph.flowchart.start_2;whiteSpace=wrap;" vertex="1" parent="WIyWlLk6GJQsqaUBKTNV-1">
          <mxGeometry x="-590" y="10" width="60" height="60" as="geometry" />
        </mxCell>
        <mxCell id="vqWYdQpRuv8S9VLRIAVL-35" style="edgeStyle=orthogonalEdgeStyle;rounded=0;orthogonalLoop=1;jettySize=auto;html=1;entryX=0.5;entryY=1;entryDx=0;entryDy=0;" edge="1" parent="WIyWlLk6GJQsqaUBKTNV-1" source="vqWYdQpRuv8S9VLRIAVL-31" target="vqWYdQpRuv8S9VLRIAVL-32">
          <mxGeometry relative="1" as="geometry" />
        </mxCell>
        <mxCell id="vqWYdQpRuv8S9VLRIAVL-31" value="&lt;br&gt;Input&lt;br&gt;Nota x, y e z" style="html=1;strokeWidth=2;shape=manualInput;whiteSpace=wrap;rounded=1;size=26;arcSize=11;" vertex="1" parent="WIyWlLk6GJQsqaUBKTNV-1">
          <mxGeometry x="-610" y="110" width="100" height="60" as="geometry" />
        </mxCell>
        <mxCell id="vqWYdQpRuv8S9VLRIAVL-38" style="edgeStyle=orthogonalEdgeStyle;rounded=0;orthogonalLoop=1;jettySize=auto;html=1;entryX=0.5;entryY=1;entryDx=0;entryDy=0;" edge="1" parent="WIyWlLk6GJQsqaUBKTNV-1" source="vqWYdQpRuv8S9VLRIAVL-32" target="vqWYdQpRuv8S9VLRIAVL-36">
          <mxGeometry relative="1" as="geometry" />
        </mxCell>
        <mxCell id="vqWYdQpRuv8S9VLRIAVL-32" value="Notas = x + y + z" style="whiteSpace=wrap;html=1;rounded=1;strokeWidth=2;arcSize=11;direction=west;" vertex="1" parent="WIyWlLk6GJQsqaUBKTNV-1">
          <mxGeometry x="-620" y="210" width="120" height="35" as="geometry" />
        </mxCell>
        <mxCell id="vqWYdQpRuv8S9VLRIAVL-43" style="edgeStyle=orthogonalEdgeStyle;rounded=0;orthogonalLoop=1;jettySize=auto;html=1;entryX=0.5;entryY=0;entryDx=0;entryDy=0;entryPerimeter=0;" edge="1" parent="WIyWlLk6GJQsqaUBKTNV-1" source="vqWYdQpRuv8S9VLRIAVL-36" target="vqWYdQpRuv8S9VLRIAVL-40">
          <mxGeometry relative="1" as="geometry" />
        </mxCell>
        <mxCell id="vqWYdQpRuv8S9VLRIAVL-53" style="edgeStyle=orthogonalEdgeStyle;rounded=0;orthogonalLoop=1;jettySize=auto;html=1;" edge="1" parent="WIyWlLk6GJQsqaUBKTNV-1" source="vqWYdQpRuv8S9VLRIAVL-36">
          <mxGeometry relative="1" as="geometry">
            <mxPoint x="-449.9999999999999" y="282.5" as="targetPoint" />
          </mxGeometry>
        </mxCell>
        <mxCell id="vqWYdQpRuv8S9VLRIAVL-36" value="média = Notas / 3" style="whiteSpace=wrap;html=1;rounded=1;strokeWidth=2;arcSize=11;direction=west;" vertex="1" parent="WIyWlLk6GJQsqaUBKTNV-1">
          <mxGeometry x="-620" y="265" width="120" height="35" as="geometry" />
        </mxCell>
        <mxCell id="vqWYdQpRuv8S9VLRIAVL-42" style="edgeStyle=orthogonalEdgeStyle;rounded=0;orthogonalLoop=1;jettySize=auto;html=1;entryX=0.584;entryY=0;entryDx=0;entryDy=0;entryPerimeter=0;" edge="1" parent="WIyWlLk6GJQsqaUBKTNV-1" source="vqWYdQpRuv8S9VLRIAVL-40" target="vqWYdQpRuv8S9VLRIAVL-41">
          <mxGeometry relative="1" as="geometry" />
        </mxCell>
        <mxCell id="vqWYdQpRuv8S9VLRIAVL-45" style="edgeStyle=orthogonalEdgeStyle;orthogonalLoop=1;jettySize=auto;html=1;entryX=0.5;entryY=0;entryDx=0;entryDy=0;entryPerimeter=0;rounded=0;dashed=1;" edge="1" parent="WIyWlLk6GJQsqaUBKTNV-1" source="vqWYdQpRuv8S9VLRIAVL-40" target="vqWYdQpRuv8S9VLRIAVL-44">
          <mxGeometry relative="1" as="geometry" />
        </mxCell>
        <mxCell id="vqWYdQpRuv8S9VLRIAVL-40" value="média &amp;gt; 7" style="strokeWidth=2;html=1;shape=mxgraph.flowchart.decision;whiteSpace=wrap;" vertex="1" parent="WIyWlLk6GJQsqaUBKTNV-1">
          <mxGeometry x="-610" y="330" width="100" height="100" as="geometry" />
        </mxCell>
        <mxCell id="vqWYdQpRuv8S9VLRIAVL-47" style="edgeStyle=orthogonalEdgeStyle;rounded=0;orthogonalLoop=1;jettySize=auto;html=1;" edge="1" parent="WIyWlLk6GJQsqaUBKTNV-1" source="vqWYdQpRuv8S9VLRIAVL-41" target="vqWYdQpRuv8S9VLRIAVL-46">
          <mxGeometry relative="1" as="geometry" />
        </mxCell>
        <mxCell id="vqWYdQpRuv8S9VLRIAVL-41" value="Você foi aprovado!" style="strokeWidth=2;html=1;shape=mxgraph.flowchart.display;whiteSpace=wrap;" vertex="1" parent="WIyWlLk6GJQsqaUBKTNV-1">
          <mxGeometry x="-480" y="440" width="100" height="60" as="geometry" />
        </mxCell>
        <mxCell id="vqWYdQpRuv8S9VLRIAVL-48" style="edgeStyle=orthogonalEdgeStyle;rounded=0;orthogonalLoop=1;jettySize=auto;html=1;entryX=0.5;entryY=0;entryDx=0;entryDy=0;entryPerimeter=0;" edge="1" parent="WIyWlLk6GJQsqaUBKTNV-1" source="vqWYdQpRuv8S9VLRIAVL-44" target="vqWYdQpRuv8S9VLRIAVL-46">
          <mxGeometry relative="1" as="geometry" />
        </mxCell>
        <mxCell id="vqWYdQpRuv8S9VLRIAVL-44" value="Você foi reprovado..." style="strokeWidth=2;html=1;shape=mxgraph.flowchart.display;whiteSpace=wrap;" vertex="1" parent="WIyWlLk6GJQsqaUBKTNV-1">
          <mxGeometry x="-740" y="440" width="100" height="60" as="geometry" />
        </mxCell>
        <mxCell id="vqWYdQpRuv8S9VLRIAVL-46" value="Fim" style="strokeWidth=2;html=1;shape=mxgraph.flowchart.terminator;whiteSpace=wrap;" vertex="1" parent="WIyWlLk6GJQsqaUBKTNV-1">
          <mxGeometry x="-610" y="510" width="100" height="60" as="geometry" />
        </mxCell>
        <mxCell id="vqWYdQpRuv8S9VLRIAVL-50" value="Informar média do usuário" style="rounded=1;whiteSpace=wrap;html=1;" vertex="1" parent="WIyWlLk6GJQsqaUBKTNV-1">
          <mxGeometry x="-450" y="252.5" width="120" height="60" as="geometry" />
        </mxCell>
      </root>
    </mxGraphModel>
  </diagram>
</mxfile>
